<?xml version="1.0" encoding="utf-8"?>
<!-- Generator: Adobe Illustrator 15.0.0, SVG Export Plug-In . SVG Version: 6.00 Build 0)  -->
<!DOCTYPE svg PUBLIC "-//W3C//DTD SVG 1.1//EN" "http://www.w3.org/Graphics/SVG/1.1/DTD/svg11.dtd">
<svg version="1.1" xmlns="http://www.w3.org/2000/svg" xmlns:xlink="http://www.w3.org/1999/xlink" x="0px" y="0px"
	 width="24px" height="24px" viewBox="0 0 450 450" enable-background="new 0 0 450 450" xml:space="preserve">
<g>
	<path fill="#444" d="M433.126,182.631l-59.301-8.18c-1.705-4.771-3.579-9.373-5.623-13.803l35.783-47.544
		c4.488-6.11,3.836-14.583-1.532-19.937l-41.409-41.409c-5.352-5.369-13.825-6.02-19.938-1.533l-47.542,35.785l-13.803-5.623
		l-8.178-59.302c-1.032-7.663-7.606-13.36-15.339-13.292h-58.277c-7.732-0.069-14.306,5.628-15.336,13.292l-8.18,59.302
		l-13.803,5.623l-47.543-35.785c-6.111-4.487-14.584-3.835-19.937,1.533L51.759,93.168c-5.369,5.353-6.021,13.826-1.534,19.937
		l35.785,47.544c-2.044,4.43-3.919,9.031-5.624,13.803l-59.301,8.18c-7.664,1.03-13.361,7.604-13.292,15.336v58.277
		c-0.069,7.732,5.628,14.307,13.292,15.339l58.79,8.178c1.704,4.771,3.578,9.372,5.623,13.803l-35.785,47.542
		c-4.487,6.113-3.835,14.587,1.534,19.939l41.408,41.409c5.354,5.367,13.827,6.02,19.938,1.532l47.542-35.785l13.803,5.624
		l8.179,58.791c1.031,7.661,7.605,13.359,15.337,13.29h58.789c7.732,0.069,14.307-5.629,15.339-13.29l8.178-58.791l13.803-5.624
		l47.542,35.785c6.113,4.487,14.587,3.835,19.938-1.532l41.409-41.409c5.368-5.353,6.021-13.826,1.532-19.939l-35.783-47.542
		c2.044-4.431,3.918-9.031,5.623-13.803l58.788-8.178c7.663-1.032,13.362-7.606,13.293-15.339v-58.277
		C446.011,190.402,440.585,183.891,433.126,182.631z M227.106,312.991c-47.433,0-85.884-38.452-85.884-85.885
		c0-47.433,38.451-85.884,85.884-85.884c47.433,0,85.885,38.451,85.885,85.884C312.991,274.539,274.539,312.991,227.106,312.991
		L227.106,312.991z"/>
</g>
</svg>
