<?xml version="1.0" encoding="utf-8"?>
<!-- Generator: Adobe Illustrator 15.0.0, SVG Export Plug-In . SVG Version: 6.00 Build 0)  -->
<!DOCTYPE svg PUBLIC "-//W3C//DTD SVG 1.1//EN" "http://www.w3.org/Graphics/SVG/1.1/DTD/svg11.dtd">
<svg version="1.1" xmlns="http://www.w3.org/2000/svg" xmlns:xlink="http://www.w3.org/1999/xlink" x="0px" y="0px"
	 width="24px" height="24px" viewBox="0 0 450 450" enable-background="new 0 0 450 450" xml:space="preserve">
<path fill="#444" d="M418.607,231.544c-10.648,0-19.279,8.632-19.279,19.277v101.215c0,21.295-17.263,38.559-38.558,38.559
	H90.865c-21.295,0-38.559-17.264-38.559-38.559V250.821c0-10.646-8.631-19.277-19.278-19.277c-10.648,0-19.279,8.632-19.279,19.277
	v101.215c0,42.589,34.526,77.116,77.116,77.116h269.906c42.59,0,77.116-34.527,77.116-77.116V250.821
	C437.887,240.176,429.255,231.544,418.607,231.544z"/>
<path fill="#444" d="M225.817,24.294c-10.648,0-19.279,8.631-19.279,19.279v91.575H163.98l62.656,62.658l62.658-62.658h-44.197
	V43.573C245.097,32.925,236.465,24.294,225.817,24.294z"/>
<path fill="#444" d="M425.114,168.887h-80.489c-25.677,0.025-46.485,20.834-46.511,46.51v59.524h-43.379l62.657,62.656
	l62.656-62.656h-43.378v-59.524c0-4.392,3.56-7.953,7.954-7.953l0,0h80.489c10.647,0,19.278-8.631,19.278-19.279
	C444.393,177.517,435.762,168.887,425.114,168.887L425.114,168.887z"/>
<path fill="#444" d="M28.208,207.444h85.31c4.391,0,7.952,3.561,7.952,7.953l0,0v59.524H78.093l62.656,62.656l62.656-62.656
	h-43.377v-59.524c-0.026-25.675-20.834-46.484-46.51-46.51h-85.31c-10.647,0-19.279,8.63-19.279,19.278
	C8.929,198.813,17.561,207.444,28.208,207.444z"/>
</svg>
