<?xml version="1.0" encoding="utf-8"?>
<!-- Generator: Adobe Illustrator 15.0.0, SVG Export Plug-In . SVG Version: 6.00 Build 0)  -->
<!DOCTYPE svg PUBLIC "-//W3C//DTD SVG 1.1//EN" "http://www.w3.org/Graphics/SVG/1.1/DTD/svg11.dtd">
<svg version="1.1" xmlns="http://www.w3.org/2000/svg" xmlns:xlink="http://www.w3.org/1999/xlink" x="0px" y="0px"
	 width="24px" height="24px" viewBox="0 0 450 450" enable-background="new 0 0 450 450" xml:space="preserve">
<rect x="45.5" y="45.5" fill="none" width="360" height="360"/>
<rect fill="none" width="450" height="450"/>
<g>
	<polygon fill="#444" points="132.165,98.671 132.165,78.426 120.996,65.165 120.996,47.713 113.319,47.713 105.642,47.713
		105.642,65.165 94.473,78.426 94.473,98.671 113.319,98.671 	"/>
	<polygon fill="#444" points="188.005,98.671 188.005,78.426 176.837,65.165 176.837,47.713 169.16,47.713 161.482,47.713
		161.482,65.165 150.313,78.426 150.313,98.671 169.16,98.671 	"/>
	<polygon fill="#444" points="243.845,98.671 243.845,78.426 232.677,65.165 232.677,47.713 225,47.713 217.323,47.713
		217.323,65.165 206.154,78.426 206.154,98.671 225,98.671 	"/>
	<polygon fill="#444" points="299.69,98.671 299.69,78.426 288.521,65.165 288.521,47.713 280.845,47.713 273.164,47.713
		273.164,65.165 262,78.426 262,98.671 280.845,98.671 	"/>
	<polygon fill="#444" points="355.526,98.671 355.526,78.426 344.357,65.165 344.357,47.713 336.681,47.713 329.004,47.713
		329.004,65.165 317.839,78.426 317.839,98.671 336.681,98.671 	"/>
	<polygon fill="#444" points="94.473,351.333 94.473,371.574 105.642,384.84 105.642,402.282 113.319,402.282 120.996,402.282
		120.996,384.84 132.165,371.574 132.165,351.333 113.319,351.333 	"/>
	<polygon fill="#444" points="150.313,351.333 150.313,371.574 161.482,384.84 161.482,402.282 169.16,402.282 176.837,402.282
		176.837,384.84 188.005,371.574 188.005,351.333 169.16,351.333 	"/>
	<polygon fill="#444" points="206.154,351.333 206.154,371.574 217.323,384.84 217.323,402.282 225,402.282 232.677,402.282
		232.677,384.84 243.845,371.574 243.845,351.333 225,351.333 	"/>
	<polygon fill="#444" points="262,351.333 262,371.574 273.164,384.84 273.164,402.282 280.845,402.282 288.521,402.282
		288.521,384.84 299.69,371.574 299.69,351.333 280.845,351.333 	"/>
	<polygon fill="#444" points="317.839,351.333 317.839,371.574 329.004,384.84 329.004,402.282 336.681,402.282 344.357,402.282
		344.357,384.84 355.526,371.574 355.526,351.333 336.681,351.333 	"/>
	<path fill="#444" d="M373.446,108.203H76.558c-12.595,0-22.801,10.206-22.801,22.802v187.997
		c0,12.596,10.21,22.796,22.801,22.796H373.45c12.591,0,22.798-10.205,22.798-22.796V131.004
		C396.248,118.408,386.037,108.203,373.446,108.203z"/>
</g>
</svg>
