<?xml version="1.0" encoding="utf-8"?>
<!-- Generator: Adobe Illustrator 15.0.0, SVG Export Plug-In . SVG Version: 6.00 Build 0)  -->
<!DOCTYPE svg PUBLIC "-//W3C//DTD SVG 1.1//EN" "http://www.w3.org/Graphics/SVG/1.1/DTD/svg11.dtd">
<svg version="1.1" id="Calque_1" xmlns="http://www.w3.org/2000/svg" xmlns:xlink="http://www.w3.org/1999/xlink" x="0px" y="0px"
	 width="24px" height="24px" viewBox="0 0 450 450" enable-background="new 0 0 450 450" xml:space="preserve">
<g>
	<path fill="#444" d="M360.258,333.102V61.546c0-29.994-24.317-54.312-54.312-54.312h-244.4
		c-29.994,0-54.312,24.318-54.312,54.312v54.311h81.467v271.556c0,29.994,24.318,54.312,54.312,54.312h244.4
		c29.994,0,54.312-24.317,54.312-54.312v-54.312H360.258z M88.702,88.702H34.391V61.546c0-14.963,12.193-27.156,27.156-27.156
		h27.155V88.702z M170.169,387.413c0,14.977-12.167,27.156-27.156,27.156c-14.963,0-27.156-12.18-27.156-27.156V115.857h0.027
		V88.702h-0.027V34.391h190.089c14.99,0,27.155,12.193,27.155,27.156v271.555H170.169V387.413z M414.569,387.413
		c0,14.977-12.166,27.156-27.156,27.156H189.789c4.671-8.024,7.536-17.218,7.536-27.156v-27.155h217.245V387.413z"/>
</g>
</svg>
