<svg version="1.1" xmlns="http://www.w3.org/2000/svg" xmlns:xlink="http://www.w3.org/1999/xlink" x="0px" y="0px"
	 width="16px" height="16px" viewBox="0 0 450 450" enable-background="new 0 0 450 450" xml:space="preserve">
<g>
	<g>
		<path fill="#333" d="M246.213,25.115c-0.428-0.037-0.875-0.074-1.311-0.074c-11.704,0-19.782,9.476-19.782,21.159
			c0,11.527,4.472,20.894,22.063,21.129v0.074c83.529,1.147,156.629,72.509,156.629,160.063
			c0,88.276-72.502,161.118-160.777,161.118c-84.23,0-154.253-63.565-160.389-147.103h37.182l-57.375-95.36l-57.363,95.36h35.181
			c6.23,105.513,94.47,189.411,202.066,189.411c111.626,0,202.438-91.263,202.438-202.926
			C444.768,117.672,356.043,27.226,246.213,25.115z"/>
		<path fill="#333" d="M264.779,123.705c0-9.955-8.002-18.496-17.933-18.496h-3.872c-9.954,0-17.752,8.541-17.752,18.496v106.426
			l-52.109,52.026c-7.718,7.688-7.291,20.165-0.037,27.816c7.306,7.755,20.099,7.755,27.801,0l57.568-57.589
			c0.45-0.478,0.81-0.965,1.236-1.399c3.172-3.265,5.105-7.708,5.105-12.609V123.705H264.779z"/>
	</g>
</g>
</svg>