<?xml version="1.0" encoding="utf-8"?>
<!-- Generator: Adobe Illustrator 15.0.0, SVG Export Plug-In . SVG Version: 6.00 Build 0)  -->
<!DOCTYPE svg PUBLIC "-//W3C//DTD SVG 1.1//EN" "http://www.w3.org/Graphics/SVG/1.1/DTD/svg11.dtd">
<svg version="1.1" xmlns="http://www.w3.org/2000/svg" xmlns:xlink="http://www.w3.org/1999/xlink" x="0px" y="0px"
	 width="24px" height="24px" viewBox="0 0 450 450" enable-background="new 0 0 450 450" xml:space="preserve">
<path fill="#333" d="M316.026,88.237H54.904c-16.172,0-29.285,13.113-29.285,29.285v324.71
	c62.63,7.051,94.429,1.926,167.169-56.263c57.844-46.276,126.317-49.891,152.518-49.375V117.522
	C345.307,101.35,332.198,88.237,316.026,88.237z M323.346,315.508c-38.052,3.05-98.101,15-147.329,54.379
	c-55.502,44.402-82.303,52.355-119.502,52.355c-1.301,0-7.571-0.045-8.931-0.08v-309.52h275.761V315.508L323.346,315.508z"/>
<path fill="#333" d="M396.558,2.827H135.435c-16.172,0-29.285,13.113-29.285,29.285v8.542h21.965V27.232h275.763v197.986
	c-2.754,0.221-10.503,0.511-13.418,0.825v22.172c14.851-1.827,27.189-2.073,35.383-1.91V32.112
	C425.843,15.94,412.735,2.827,396.558,2.827z"/>
<path fill="#333" d="M356.294,45.534H95.172c-16.176,0-29.285,13.114-29.285,29.286v8.537h21.965V69.939h275.764v197.985
	c-2.761,0.221-10.503,0.507-13.425,0.825v22.172c14.852-1.826,27.188-2.072,35.388-1.91V74.82
	C385.579,58.648,372.466,45.534,356.294,45.534z"/>
</svg>
